<svg width="24" height="24" viewBox="0 0 24 24" fill="none" xmlns="http://www.w3.org/2000/svg">
<g id="inno_investor" clip-path="url(#clip0_1_1147)">
<path id="Vector" d="M15.1485 5.6499L16.2735 3.3984C16.3175 3.3103 16.3438 3.21439 16.3508 3.11614C16.3578 3.01789 16.3453 2.91922 16.3142 2.82578C16.283 2.73234 16.2338 2.64595 16.1692 2.57154C16.1047 2.49714 16.0261 2.43617 15.938 2.39213C15.8499 2.34808 15.754 2.32182 15.6558 2.31484C15.5575 2.30786 15.4588 2.3203 15.3654 2.35146C15.272 2.38261 15.1856 2.43186 15.1112 2.4964C15.0368 2.56094 14.9758 2.6395 14.9317 2.7276L13.6999 5.19285H10.3L8.4543 1.5H14.1636C14.3625 1.5 14.5533 1.42098 14.6939 1.28033C14.8346 1.13968 14.9136 0.948912 14.9136 0.75C14.9136 0.551088 14.8346 0.360322 14.6939 0.21967C14.5533 0.0790176 14.3625 0 14.1636 0L7.24065 0C7.11282 2.99082e-05 6.98712 0.0327302 6.87549 0.0949964C6.76385 0.157263 6.66998 0.247028 6.60279 0.355771C6.5356 0.464515 6.49732 0.588626 6.49158 0.716324C6.48584 0.844022 6.51283 0.971067 6.57 1.0854L8.8515 5.65005C7.01718 6.86396 5.49487 8.4932 4.40809 10.4056C3.3213 12.318 2.70065 14.4596 2.5965 16.6567C2.5965 19.6084 5.1 24 12 24C18.9 24 21.4035 19.6084 21.4035 16.6567C21.2993 14.4596 20.6787 12.3179 19.5919 10.4055C18.5051 8.49312 16.9828 6.86385 15.1485 5.6499ZM12 22.5C6.20145 22.5 4.0965 19.005 4.0965 16.6567C4.0965 11.1694 9.0594 6.69285 10.2693 6.69285H13.7307C14.9406 6.69285 19.9035 11.1694 19.9035 16.6567C19.9035 19.005 17.7985 22.5 12 22.5Z" fill="#9CA3AF"/>
<path id="Vector_2" d="M12.75 14.087V11.8753C12.9895 11.9474 13.2134 12.0637 13.41 12.2183C13.4866 12.2803 13.5746 12.3267 13.6691 12.3547C13.7635 12.3827 13.8626 12.3919 13.9606 12.3816C14.0586 12.3714 14.1537 12.3419 14.2403 12.2949C14.3269 12.2479 14.4034 12.1843 14.4655 12.1078C14.5275 12.0312 14.5739 11.9432 14.6019 11.8487C14.63 11.7542 14.6391 11.6552 14.6288 11.5572C14.6186 11.4591 14.5891 11.3641 14.5421 11.2775C14.4951 11.1909 14.4316 11.1143 14.355 11.0523C13.8871 10.6774 13.3319 10.4271 12.7412 10.3248C12.7303 10.1317 12.6447 9.95049 12.5025 9.81942C12.3603 9.68834 12.1727 9.61773 11.9794 9.62253C11.7861 9.62732 11.6023 9.70715 11.4668 9.84511C11.3313 9.98307 11.2548 10.1683 11.2535 10.3617C10.6334 10.4338 10.0576 10.7187 9.62427 11.1679C9.19089 11.6171 8.92679 12.2028 8.877 12.825C8.877 14.2635 9.99825 14.6634 11.0831 15.0516C11.1353 15.07 11.1959 15.0936 11.25 15.1131V17.6082C10.7623 17.5715 10.2922 17.4099 9.885 17.139C9.80613 17.0799 9.71639 17.0369 9.62091 17.0125C9.52543 16.9881 9.42607 16.9827 9.32851 16.9967C9.23096 17.0107 9.13711 17.0438 9.05233 17.094C8.96755 17.1443 8.8935 17.2107 8.8344 17.2896C8.77531 17.3685 8.73233 17.4582 8.70791 17.5537C8.6835 17.6492 8.67813 17.7485 8.69212 17.8461C8.7061 17.9436 8.73917 18.0375 8.78942 18.1223C8.83967 18.2071 8.90613 18.2811 8.985 18.3402C9.65952 18.8017 10.4487 19.0671 11.265 19.1071C11.2821 19.294 11.3696 19.4673 11.5098 19.5921C11.6499 19.7168 11.8322 19.7837 12.0198 19.779C12.2073 19.7744 12.3861 19.6987 12.5199 19.5672C12.6538 19.4357 12.7326 19.2583 12.7406 19.0708C14.9502 18.7708 15.3134 17.5049 15.3134 16.7112C15.315 15.3408 14.085 14.648 12.75 14.087ZM10.377 12.825C10.377 12.4511 10.7453 12.1219 11.25 11.9328V13.515C10.418 13.2015 10.377 13.1001 10.377 12.825ZM12.75 17.5443V15.7368C13.6545 16.1849 13.815 16.4718 13.815 16.7109C13.815 17.1414 13.4435 17.415 12.75 17.5443Z" fill="#9CA3AF"/>
</g>
<defs>
<clipPath id="clip0_1_1147">
<rect width="24" height="24" fill="white"/>
</clipPath>
</defs>
</svg>
