<svg width="24" height="24" viewBox="0 0 24 24" fill="none" xmlns="http://www.w3.org/2000/svg">
<g id="inno_strategy">
<path id="Vector" d="M19.1837 24H5.39356C5.10982 23.9976 4.83863 23.8828 4.63951 23.6806C4.4404 23.4785 4.32964 23.2056 4.33156 22.9218V20.2983C4.32653 19.5159 4.62629 18.7623 5.16732 18.1972C5.70836 17.632 6.44816 17.2997 7.23001 17.2706C7.31356 14.2589 7.92586 12.2594 9.05236 11.3204C9.45226 10.9922 9.84631 10.6304 10.1685 10.3082C9.84184 10.2388 9.52142 10.1428 9.21046 10.0211C9.09481 9.97846 8.96881 9.93316 8.87356 9.90376C8.81941 9.94771 8.75206 10.0088 8.69776 10.0577C8.39925 10.3686 8.04171 10.6168 7.64606 10.7879C7.25041 10.9589 6.82461 11.0493 6.39361 11.0537C4.52296 11.0537 3.78181 9.15826 3.75361 7.96366C3.73456 7.21651 4.51096 6.52816 6.16336 5.24341C6.53386 4.95346 6.86941 4.69561 7.06711 4.50961C7.23826 4.32952 7.37307 4.11811 7.46416 3.88696C7.57285 3.55223 7.77626 3.25619 8.04976 3.03469C8.32325 2.81319 8.6551 2.67573 9.00511 2.63896C9.10835 2.63469 9.21036 2.61481 9.30766 2.58001H9.30616C9.27541 2.58001 9.30616 2.34571 9.10261 1.55911C9.02017 1.33837 9.00512 1.09813 9.05935 0.868829C9.11359 0.639526 9.23467 0.431483 9.40726 0.271062C10.095 -0.317838 11.1987 0.152412 12.7266 0.798312C13.2627 1.02541 13.815 1.26121 14.31 1.42231C16.623 2.18266 19.2 5.65726 19.2 9.42916C19.1651 11.0284 18.8293 12.6067 18.21 14.0816C17.7918 15.1029 17.511 16.1753 17.3751 17.2706C18.152 17.3071 18.8846 17.6426 19.4197 18.2069C19.9549 18.7712 20.251 19.5206 20.2463 20.2983V22.9218C20.2482 23.2057 20.1373 23.4786 19.9381 23.6808C19.7388 23.883 19.4675 23.9978 19.1837 24ZM5.83156 22.5H18.7457V20.2983C18.7514 19.8991 18.5985 19.5139 18.3206 19.2272C18.0427 18.9405 17.6624 18.7757 17.2632 18.7691H15.8408V18.0191C15.8804 16.4895 16.2053 14.9807 16.7988 13.5704C17.3568 12.2589 17.6625 10.8539 17.7 9.42916C17.709 8.08651 17.3554 6.76633 16.6765 5.60794C15.9976 4.44954 15.0186 3.49589 13.8428 2.84761C13.3125 2.67481 12.7178 2.42431 12.1421 2.17966C11.6921 1.98931 11.0859 1.73296 10.6538 1.59466C10.7601 1.90145 10.8015 2.22701 10.7753 2.55064C10.749 2.87428 10.6558 3.18893 10.5015 3.47461C10.3386 3.6764 10.1333 3.8399 9.90013 3.95356C9.667 4.06723 9.41174 4.12826 9.15241 4.13236C9.01321 4.14556 9.00151 4.14736 8.81986 4.52926C8.65061 4.9319 8.40371 5.29725 8.09326 5.60446C7.87066 5.81251 7.50001 6.10261 7.08541 6.42631C6.42762 6.89818 5.8169 7.4324 5.26171 8.02156C5.29831 8.37016 5.48881 9.55366 6.39406 9.55366C6.64109 9.54803 6.88424 9.49094 7.10796 9.38603C7.33168 9.28111 7.53106 9.13069 7.69336 8.94436C7.84404 8.76456 8.0333 8.62102 8.24707 8.52439C8.46084 8.42776 8.69363 8.38054 8.92816 8.38621C9.202 8.4306 9.46988 8.50609 9.72661 8.61121C10.1589 8.82764 10.6477 8.90443 11.1255 8.83096C11.3343 8.74305 11.568 8.73459 11.7825 8.80719C11.9971 8.87979 12.1776 9.02841 12.2901 9.22501C12.4409 9.51361 12.794 10.1918 10.0094 12.4755C9.20656 13.145 8.73781 15.1005 8.72026 17.8529L8.72461 18.0179V18.7679H7.31551C6.91605 18.7742 6.53543 18.9388 6.25721 19.2255C5.97899 19.5122 5.8259 19.8976 5.83156 20.2971V22.5Z" fill="#9CA3AF"/>
</g>
</svg>
