<svg width="16" height="16" viewBox="0 0 16 16" fill="none" xmlns="http://www.w3.org/2000/svg">
<g id="inno_organizations" clip-path="url(#clip0_15067_1308)">
<path id="Vector" d="M14 7.49999C13.7047 7.50108 13.4134 7.56792 13.1473 7.69566C12.8811 7.8234 12.6467 8.00884 12.4611 8.23849L9.9286 7.06999C10.0542 6.56698 10.0136 6.03685 9.813 5.55879L12.1735 3.98519C12.5152 4.28694 12.9502 4.46235 13.4056 4.48211C13.8611 4.50188 14.3096 4.36481 14.6762 4.09379C15.0428 3.82278 15.3053 3.43421 15.42 2.99297C15.5346 2.55172 15.4945 2.0845 15.3062 1.6693C15.1179 1.2541 14.7929 0.916042 14.3854 0.71157C13.9779 0.507099 13.5126 0.448584 13.0672 0.545795C12.6218 0.643006 12.2232 0.89006 11.938 1.24571C11.6528 1.60137 11.4982 2.04409 11.5 2.49999C11.5024 2.7229 11.5426 2.94379 11.6188 3.15329L9.2588 4.72629C8.87178 4.33723 8.36596 4.08849 7.82153 4.01951C7.2771 3.95052 6.72523 4.06525 6.2534 4.34549L5.1594 3.11449C5.40779 2.7442 5.52527 2.30149 5.49314 1.85677C5.46102 1.41204 5.28115 0.990813 4.98212 0.660059C4.6831 0.329305 4.28208 0.108009 3.84283 0.0313545C3.40358 -0.0453004 2.95132 0.0270858 2.55794 0.237005C2.16455 0.446923 1.85264 0.782325 1.67178 1.18989C1.49092 1.59745 1.4515 2.05377 1.55979 2.48631C1.66808 2.91884 1.91785 3.30277 2.26941 3.57704C2.62096 3.85131 3.05411 4.00018 3.5 3.99999C3.8159 3.99781 4.12667 3.91986 4.4062 3.77269L5.5052 5.00879C5.15347 5.469 4.97552 6.03862 5.00273 6.61721C5.02993 7.1958 5.26054 7.74621 5.6539 8.17139L2.74 12.1458C2.50495 12.0502 2.25373 12.0007 2 12C1.60444 12 1.21776 12.1173 0.88886 12.3371C0.559962 12.5568 0.303617 12.8692 0.152242 13.2346C0.000866562 13.6001 -0.0387401 14.0022 0.0384303 14.3902C0.115601 14.7781 0.306082 15.1345 0.585787 15.4142C0.865492 15.6939 1.22186 15.8844 1.60982 15.9616C1.99778 16.0387 2.39992 15.9991 2.76537 15.8477C3.13082 15.6964 3.44318 15.44 3.66294 15.1111C3.8827 14.7822 4 14.3956 4 14C3.99796 13.5406 3.83623 13.0962 3.5425 12.7429L6.4586 8.76569C6.7393 8.89359 7.04141 8.96793 7.3494 8.98489L7.7313 11.6549C7.27611 11.8384 6.90354 12.1818 6.68353 12.6205C6.46351 13.0592 6.41117 13.5632 6.53633 14.0378C6.66149 14.5123 6.95554 14.9249 7.3633 15.1981C7.77105 15.4713 8.26449 15.5862 8.75099 15.5214C9.2375 15.4566 9.68363 15.2165 10.0057 14.8461C10.3277 14.4757 10.5035 14.0006 10.5001 13.5098C10.4966 13.019 10.3142 12.5463 9.98701 12.1805C9.65982 11.8146 9.21037 11.5808 8.723 11.5228L8.34 8.84449C8.80637 8.67735 9.21251 8.37532 9.5068 7.97679L12.036 9.14429C11.9634 9.54819 12.0169 9.96464 12.1893 10.337C12.3617 10.7094 12.6446 11.0197 12.9995 11.2257C13.3545 11.4317 13.7642 11.5234 14.1731 11.4883C14.582 11.4532 14.9701 11.293 15.2847 11.0296C15.5994 10.7662 15.8253 10.4122 15.9317 10.0159C16.0381 9.61958 16.0199 9.20009 15.8796 8.81447C15.7392 8.42885 15.4835 8.09581 15.1472 7.86062C14.8109 7.62544 14.4104 7.49952 14 7.49999ZM13.5 1.49999C13.6978 1.49999 13.8911 1.55864 14.0556 1.66852C14.22 1.7784 14.3482 1.93458 14.4239 2.11731C14.4996 2.30003 14.5194 2.5011 14.4808 2.69508C14.4422 2.88906 14.347 3.06724 14.2071 3.2071C14.0673 3.34695 13.8891 3.44219 13.6951 3.48077C13.5011 3.51936 13.3 3.49956 13.1173 3.42387C12.9346 3.34818 12.7784 3.22001 12.6685 3.05556C12.5587 2.89111 12.5 2.69777 12.5 2.49999C12.5002 2.23482 12.6056 1.98056 12.7931 1.79306C12.9806 1.60556 13.2348 1.50015 13.5 1.49999ZM2.5 1.99999C2.5 1.80221 2.55865 1.60887 2.66853 1.44442C2.77841 1.27997 2.93459 1.1518 3.11732 1.07611C3.30004 1.00042 3.50111 0.980619 3.69509 1.0192C3.88907 1.05779 4.06726 1.15303 4.20711 1.29288C4.34696 1.43274 4.4422 1.61092 4.48079 1.8049C4.51937 1.99888 4.49957 2.19995 4.42388 2.38267C4.34819 2.5654 4.22002 2.72158 4.05557 2.83146C3.89112 2.94134 3.69778 2.99999 3.5 2.99999C3.23483 2.99983 2.98057 2.89442 2.79307 2.70692C2.60557 2.51942 2.50016 2.26516 2.5 1.99999ZM2 15C1.80222 15 1.60888 14.9413 1.44443 14.8315C1.27998 14.7216 1.15181 14.5654 1.07612 14.3827C1.00043 14.1999 0.98063 13.9989 1.01922 13.8049C1.0578 13.6109 1.15304 13.4327 1.29289 13.2929C1.43275 13.153 1.61093 13.0578 1.80491 13.0192C1.99889 12.9806 2.19996 13.0004 2.38268 13.0761C2.56541 13.1518 2.72159 13.28 2.83147 13.4444C2.94135 13.6089 3 13.8022 3 14C2.99984 14.2652 2.89443 14.5194 2.70693 14.7069C2.51943 14.8944 2.26517 14.9998 2 15ZM9.5 13.5C9.5 13.6978 9.44135 13.8911 9.33147 14.0556C9.22159 14.22 9.06541 14.3482 8.88268 14.4239C8.69996 14.4996 8.49889 14.5194 8.30491 14.4808C8.11093 14.4422 7.93275 14.3469 7.79289 14.2071C7.65304 14.0672 7.5578 13.8891 7.51922 13.6951C7.48063 13.5011 7.50043 13.3 7.57612 13.1173C7.65181 12.9346 7.77998 12.7784 7.94443 12.6685C8.10888 12.5586 8.30222 12.5 8.5 12.5C8.76517 12.5001 9.01943 12.6056 9.20693 12.7931C9.39443 12.9806 9.49984 13.2348 9.5 13.5ZM7.724 7.97729C7.7191 7.97789 7.7148 7.97579 7.71 7.97659L7.7013 7.97999C7.63474 7.99127 7.56748 7.99795 7.5 7.99999C7.18257 7.9992 6.87373 7.8968 6.6187 7.70779L6.6162 7.70509L6.6144 7.70419C6.33438 7.49904 6.13421 7.20309 6.04804 6.86682C5.96187 6.53056 5.99503 6.17481 6.14187 5.86027C6.28871 5.54573 6.54014 5.29188 6.85325 5.14202C7.16637 4.99216 7.52177 4.95557 7.85885 5.03851C8.19593 5.12144 8.49379 5.31875 8.70163 5.59679C8.90946 5.87482 9.0144 6.21635 8.99854 6.56312C8.98267 6.90988 8.84699 7.2404 8.61463 7.4983C8.38228 7.75619 8.06764 7.92548 7.7244 7.97729H7.724ZM14 10.5C13.8022 10.5 13.6089 10.4413 13.4444 10.3315C13.28 10.2216 13.1518 10.0654 13.0761 9.88267C13.0004 9.69995 12.9806 9.49888 13.0192 9.3049C13.0578 9.11092 13.153 8.93274 13.2929 8.79288C13.4327 8.65303 13.6109 8.55779 13.8049 8.5192C13.9989 8.48062 14.2 8.50042 14.3827 8.57611C14.5654 8.6518 14.7216 8.77997 14.8315 8.94442C14.9414 9.10887 15 9.30221 15 9.49999C14.9998 9.76516 14.8944 10.0194 14.7069 10.2069C14.5194 10.3944 14.2652 10.4998 14 10.5Z" fill="#374151"/>
</g>
<defs>
<clipPath id="clip0_15067_1308">
<rect width="16" height="16" fill="white"/>
</clipPath>
</defs>
</svg>
