<svg width="24" height="24" viewBox="0 0 24 24" fill="none" xmlns="http://www.w3.org/2000/svg">
<g id="inno_clock" clip-path="url(#clip0_1_1135)">
<path id="Vector" d="M16.5835 13.166H11.584C11.3851 13.166 11.1944 13.0869 11.0537 12.9463C10.9131 12.8056 10.834 12.6149 10.834 12.416V3.2505C10.834 3.05159 10.9131 2.86083 11.0537 2.72017C11.1944 2.57952 11.3851 2.5005 11.584 2.5005C11.783 2.5005 11.9737 2.57952 12.1144 2.72017C12.255 2.86083 12.334 3.05159 12.334 3.2505V11.6655H16.5835C16.7825 11.6655 16.9732 11.7445 17.1139 11.8852C17.2545 12.0258 17.3335 12.2166 17.3335 12.4155C17.3335 12.6144 17.2545 12.8052 17.1139 12.9458C16.9732 13.0865 16.7825 13.1655 16.5835 13.1655V13.166Z" fill="#9CA3AF"/>
<path id="Vector_2" d="M12 24C9.33071 24.0058 6.73533 23.1235 4.62272 21.4919C2.5101 19.8604 1.00032 17.5723 0.331211 14.9883C-0.337899 12.4042 -0.128308 9.67096 0.926965 7.21912C1.98224 4.76729 3.82322 2.7362 6.15989 1.44582C8.49657 0.155443 11.1961 -0.320884 13.8333 0.0918751C16.4705 0.504634 18.8954 1.78302 20.7261 3.72565C22.5567 5.66828 23.6891 8.16474 23.9448 10.8218C24.2004 13.4788 23.5649 16.1453 22.1382 18.4014C22.0855 18.4847 22.0169 18.5568 21.9363 18.6136C21.8557 18.6703 21.7648 18.7107 21.6686 18.7323C21.5724 18.754 21.4729 18.7564 21.3758 18.7396C21.2787 18.7228 21.1858 18.687 21.1025 18.6343C21.0192 18.5816 20.9471 18.513 20.8903 18.4324C20.8336 18.3518 20.7932 18.2608 20.7716 18.1647C20.75 18.0685 20.7475 17.969 20.7643 17.8719C20.7811 17.7747 20.8169 17.6819 20.8696 17.5986C22.2547 15.4086 22.7836 12.7848 22.3552 10.2292C21.9268 7.67358 20.5711 5.36569 18.5476 3.7471C16.524 2.12851 13.9747 1.31287 11.3874 1.45627C8.80015 1.59966 6.35658 2.69201 4.52429 4.5243C2.692 6.35659 1.59966 8.80015 1.45626 11.3874C1.31287 13.9747 2.1285 16.524 3.74709 18.5476C5.36568 20.5711 7.67357 21.9268 10.2292 22.3552C12.7847 22.7836 15.4086 22.2547 17.5986 20.8696C17.6819 20.8169 17.7747 20.7811 17.8719 20.7643C17.969 20.7475 18.0685 20.75 18.1647 20.7716C18.2608 20.7932 18.3518 20.8336 18.4324 20.8903C18.513 20.9471 18.5816 21.0192 18.6343 21.1025C18.687 21.1858 18.7228 21.2787 18.7396 21.3758C18.7564 21.4729 18.7539 21.5724 18.7323 21.6686C18.7107 21.7648 18.6703 21.8557 18.6136 21.9363C18.5568 22.0169 18.4847 22.0855 18.4014 22.1382C16.4871 23.3528 14.2671 23.9985 12 24Z" fill="#9CA3AF"/>
</g>
<defs>
<clipPath id="clip0_1_1135">
<rect width="24" height="24" fill="white"/>
</clipPath>
</defs>
</svg>
