<svg width="24" height="24" viewBox="0 0 24 24" fill="none" xmlns="http://www.w3.org/2000/svg">
<g id="inno_dev-4" clip-path="url(#clip0_1_1112)">
<path id="Vector" d="M12.725 15.1728C13.3525 15.1728 13.9659 14.9867 14.4877 14.6381C15.0094 14.2895 15.4161 13.7939 15.6562 13.2142C15.8964 12.6344 15.9592 11.9965 15.8368 11.381C15.7144 10.7656 15.4122 10.2002 14.9685 9.7565C14.5247 9.31278 13.9594 9.0106 13.3439 8.88818C12.7285 8.76575 12.0905 8.82858 11.5108 9.06873C10.931 9.30887 10.4355 9.71553 10.0869 10.2373C9.73824 10.7591 9.55215 11.3725 9.55215 12C9.55327 12.8411 9.8879 13.6475 10.4827 14.2423C11.0774 14.8371 11.8838 15.1717 12.725 15.1728ZM12.725 10.3278C13.0558 10.3278 13.3793 10.4259 13.6544 10.6098C13.9295 10.7936 14.1439 11.0549 14.2705 11.3606C14.3971 11.6663 14.4302 12.0027 14.3656 12.3272C14.301 12.6517 14.1416 12.9498 13.9076 13.1837C13.6736 13.4176 13.3755 13.5769 13.0509 13.6413C12.7264 13.7058 12.39 13.6726 12.0844 13.5459C11.7787 13.4192 11.5175 13.2047 11.3338 12.9295C11.15 12.6544 11.052 12.3309 11.0522 12C11.0525 11.5565 11.2289 11.1312 11.5425 10.8176C11.8561 10.5039 12.2814 10.3276 12.725 10.3272V10.3278Z" fill="#9CA3AF"/>
<path id="Vector_2" d="M5.79779 13.9863C5.74666 14.1789 5.77407 14.3839 5.87399 14.5563L7.08539 16.6554C7.13431 16.7408 7.1996 16.8156 7.27752 16.8757C7.35543 16.9358 7.44444 16.9799 7.53944 17.0055C7.73207 17.056 7.93683 17.0286 8.10944 16.9293L9.16994 16.3185C9.6471 16.7102 10.1856 17.0205 10.7637 17.237V18.4616C10.7637 18.6605 10.8427 18.8512 10.9834 18.9919C11.124 19.1325 11.3148 19.2116 11.5137 19.2116H13.9365C14.1354 19.2116 14.3262 19.1325 14.4668 18.9919C14.6075 18.8512 14.6865 18.6605 14.6865 18.4616V17.237C15.2646 17.0205 15.8031 16.7102 16.2802 16.3185L17.3407 16.9293C17.5134 17.0286 17.7181 17.056 17.9107 17.0055C18.0057 16.9799 18.0947 16.9358 18.1727 16.8757C18.2506 16.8156 18.3159 16.7408 18.3648 16.6554L19.5762 14.5563C19.6761 14.3839 19.7035 14.1789 19.6524 13.9863C19.5998 13.7945 19.4741 13.631 19.3023 13.5308L18.2418 12.92C18.3472 12.3112 18.3472 11.6888 18.2418 11.0801L19.3023 10.4693C19.4741 10.369 19.5998 10.2055 19.6524 10.0137C19.7035 9.82111 19.6761 9.6161 19.5762 9.44371L18.3648 7.3446C18.3159 7.25922 18.2506 7.18434 18.1727 7.12426C18.0948 7.06418 18.0057 7.02008 17.9107 6.9945C17.7181 6.94481 17.5136 6.97214 17.3407 7.0707L16.2802 7.6815C15.8031 7.2899 15.2646 6.97964 14.6865 6.7632V5.5386C14.6865 5.33969 14.6075 5.14893 14.4668 5.00827C14.3262 4.86762 14.1354 4.7886 13.9365 4.7886H11.5135C11.3146 4.7886 11.1239 4.86762 10.9832 5.00827C10.8426 5.14893 10.7635 5.33969 10.7635 5.5386V6.7632C10.1854 6.97969 9.64696 7.29 9.16979 7.68165L8.10929 7.07085C7.93643 6.97229 7.73197 6.94496 7.53929 6.99465C7.44428 7.02023 7.35526 7.06433 7.27734 7.12441C7.19942 7.18449 7.13413 7.25937 7.08524 7.34475L5.87399 9.44385C5.77407 9.61625 5.74666 9.82126 5.79779 10.0139C5.85036 10.2057 5.97606 10.3692 6.14789 10.4694L7.20839 11.0802C7.10299 11.689 7.10299 12.3113 7.20839 12.9201L6.14789 13.5309C5.97609 13.631 5.85039 13.7945 5.79779 13.9863ZM8.78159 13.0958C8.57859 12.3794 8.57859 11.6207 8.78159 10.9043C8.82614 10.7442 8.81622 10.5739 8.75338 10.4201C8.69055 10.2663 8.57837 10.1377 8.43449 10.0547L7.54679 9.54345L8.00819 8.74365L8.89499 9.255C9.03863 9.33887 9.20619 9.37231 9.37103 9.35003C9.53586 9.32774 9.68852 9.251 9.80474 9.132C10.3252 8.60115 10.9813 8.22319 11.7016 8.03925C11.8627 7.99767 12.0054 7.90372 12.1072 7.77219C12.209 7.64065 12.2642 7.479 12.2641 7.31265V6.2886H13.1865V7.3125C13.1864 7.47885 13.2416 7.6405 13.3434 7.77204C13.4453 7.90357 13.5879 7.99752 13.749 8.0391C14.4693 8.22304 15.1254 8.601 15.6459 9.13186C15.7621 9.25087 15.9148 9.32763 16.0796 9.34992C16.2444 9.3722 16.412 9.33874 16.5556 9.25485L17.4418 8.74365L17.9032 9.54345L17.0155 10.0547C16.8717 10.1378 16.7596 10.2664 16.6968 10.4201C16.6339 10.5739 16.6239 10.7442 16.6683 10.9043C16.8715 11.6206 16.8715 12.3794 16.6683 13.0958C16.6239 13.2558 16.6339 13.4261 16.6968 13.5799C16.7596 13.7336 16.8717 13.8622 17.0155 13.9454L17.9032 14.4566L17.4418 15.2564L16.5556 14.745C16.412 14.6611 16.2444 14.6277 16.0796 14.6499C15.9148 14.6722 15.7621 14.749 15.6459 14.868C15.1254 15.3989 14.4693 15.7768 13.749 15.9608C13.5879 16.0023 13.4453 16.0963 13.3434 16.2278C13.2416 16.3594 13.1864 16.521 13.1865 16.6874V17.7113H12.2635V16.6875C12.2636 16.5212 12.2084 16.3595 12.1066 16.228C12.0048 16.0964 11.8621 16.0025 11.701 15.9609C10.9807 15.777 10.3246 15.399 9.80414 14.8682C9.68798 14.7493 9.53544 14.6726 9.37073 14.6503C9.20603 14.628 9.03859 14.6613 8.89499 14.745L8.00879 15.2562L7.54739 14.4564L8.43509 13.9452C8.57883 13.862 8.69086 13.7335 8.75358 13.5797C8.8163 13.426 8.82615 13.2557 8.78159 13.0958Z" fill="#9CA3AF"/>
<path id="Vector_3" d="M22.749 6.89206C21.8056 5.04441 20.3705 3.493 18.6018 2.40875C16.8332 1.32449 14.7995 0.749464 12.725 0.747009C12.526 0.747009 12.3353 0.826027 12.1946 0.966679C12.054 1.10733 11.975 1.2981 11.975 1.49701C11.975 1.69592 12.054 1.88669 12.1946 2.02734C12.3353 2.16799 12.526 2.24701 12.725 2.24701C14.9151 2.24722 17.0415 2.98475 18.7614 4.34077C20.4813 5.69679 21.6947 7.59234 22.2059 9.72202C22.7172 11.8517 22.4967 14.0915 21.5798 16.0805C20.6629 18.0696 19.1031 19.692 17.1518 20.6865C15.721 21.4178 14.1312 21.7831 12.5247 21.7496C10.9182 21.7162 9.34509 21.2851 7.94597 20.4949C6.54685 19.7047 5.3654 18.5801 4.50728 17.2216C3.64916 15.863 3.14114 14.313 3.02865 12.7101L4.47075 12.8949L2.73885 8.75491L0.0195007 12.3246L1.5147 12.5162C1.59204 14.1914 2.0434 15.8282 2.83568 17.3063C3.62795 18.7844 4.74104 20.0665 6.09332 21.0584C7.44559 22.0503 9.00275 22.727 10.6506 23.0387C12.2984 23.3505 13.9952 23.2894 15.6163 22.8601C17.2375 22.4307 18.742 21.6439 20.0195 20.5573C21.297 19.4708 22.315 18.112 22.999 16.5808C23.683 15.0495 24.0156 13.3846 23.9723 11.7081C23.929 10.0316 23.5111 8.38599 22.749 6.89206Z" fill="#9CA3AF"/>
</g>
<defs>
<clipPath id="clip0_1_1112">
<rect width="24" height="24" fill="white"/>
</clipPath>
</defs>
</svg>
