<svg width="14" height="16" viewBox="0 0 14 16" fill="none" xmlns="http://www.w3.org/2000/svg">
<path id="Vector" d="M13.4092 13.6423L10.5438 8.67974L10.7438 8.62554C10.969 8.56357 11.1664 8.42685 11.3036 8.23785C11.4408 8.04886 11.5096 7.81882 11.4987 7.58554L11.4548 6.54844L12.0935 5.75454C12.2398 5.57199 12.3196 5.34508 12.3198 5.11115C12.3199 4.87721 12.2405 4.65019 12.0944 4.46744L11.4479 3.65494L11.4987 2.63734C11.5098 2.4039 11.441 2.17366 11.3038 1.98446C11.1666 1.79527 10.9691 1.6584 10.7438 1.59634L9.74383 1.31894L9.18653 0.465538C9.05827 0.269899 8.86716 0.123819 8.64472 0.0513929C8.42228 -0.0210332 8.18179 -0.0154793 7.96293 0.0671384L7.00883 0.430438H7.00683C7.00203 0.430438 6.99023 0.425538 6.99123 0.430438L6.03713 0.0671384C5.81841 -0.0158187 5.57792 -0.0216493 5.35543 0.0506105C5.13294 0.12287 4.94177 0.268893 4.81353 0.464538L4.24123 1.32974L3.25593 1.59634C3.03076 1.6583 2.83336 1.79501 2.69617 1.98401C2.55898 2.173 2.49017 2.40305 2.50103 2.63634L2.54493 3.67344L1.90633 4.46644C1.75992 4.64893 1.68005 4.87585 1.67987 5.10981C1.67969 5.34377 1.75921 5.57082 1.90533 5.75354L2.55183 6.56604L2.50103 7.58474C2.49001 7.81818 2.55875 8.04842 2.69594 8.23761C2.83314 8.4268 3.03062 8.56368 3.25593 8.62574L3.45593 8.68104L0.590833 13.6423C0.5413 13.728 0.518299 13.8264 0.524743 13.9252C0.531187 14.0239 0.566786 14.1185 0.627033 14.197C0.687694 14.2747 0.769712 14.333 0.863023 14.3648C0.956335 14.3965 1.05688 14.4003 1.15233 14.3757L2.86523 13.9167L3.32323 15.6286C3.34874 15.7242 3.40203 15.8101 3.47636 15.8754C3.55069 15.9407 3.64272 15.9824 3.7408 15.9954C3.83888 16.0084 3.9386 15.992 4.02735 15.9482C4.11609 15.9045 4.18986 15.8354 4.23933 15.7497L7.00003 10.9697L9.76073 15.7497C9.80454 15.8258 9.86759 15.8889 9.94356 15.9328C10.0195 15.9767 10.1057 15.9998 10.1934 15.9997C10.3038 16.0005 10.4113 15.9644 10.4988 15.8971C10.5864 15.8299 10.649 15.7354 10.6768 15.6286L11.1348 13.9167L12.8477 14.3757C12.9432 14.4001 13.0437 14.3962 13.137 14.3645C13.2302 14.3328 13.3123 14.2746 13.373 14.197C13.4333 14.1185 13.4689 14.0239 13.4753 13.9252C13.4818 13.8264 13.4588 13.728 13.4092 13.6423ZM2.68463 5.09444L3.32463 4.30054C3.4821 4.10439 3.56228 3.85737 3.55003 3.60614L3.51763 2.56124L4.50493 2.29464C4.74675 2.22793 4.95606 2.07557 5.09383 1.86594L5.68163 1.00074L6.63483 1.36404C6.8698 1.45334 7.12936 1.45334 7.36433 1.36404L8.34863 1.01144L8.90723 1.86594C9.04477 2.07626 9.25471 2.2288 9.49723 2.29464L10.5011 2.58764L10.45 3.60814C10.4382 3.85874 10.5184 4.10503 10.6756 4.30054L11.3156 5.12674L10.6756 5.92164C10.5181 6.11735 10.4379 6.36402 10.45 6.61494L10.4822 7.66084L9.49883 7.92654C9.25511 7.99212 9.04411 8.1452 8.90613 8.35654L8.31823 9.22084L7.36503 8.85754C7.24848 8.813 7.1248 8.79002 7.00003 8.78974C6.8755 8.7897 6.75201 8.81255 6.63573 8.85714L5.65143 9.21064L5.09283 8.35614C4.95586 8.14528 4.74569 7.99257 4.50283 7.92744L3.49903 7.63454L3.55003 6.61304C3.5619 6.36274 3.48164 6.11677 3.32443 5.92164L2.68463 5.09444ZM3.97753 14.2038L3.70213 13.1755C3.66636 13.0483 3.58236 12.9401 3.468 12.8739C3.35364 12.8077 3.21796 12.7887 3.08983 12.821L2.05983 13.0974L4.37553 9.08624L4.81353 9.75624C4.90708 9.89927 5.03485 10.0167 5.18525 10.0979C5.33564 10.1791 5.50392 10.2214 5.67483 10.2211C5.79874 10.2214 5.92161 10.1985 6.03713 10.1537L6.39333 10.0205L3.97753 14.2038ZM10.91 12.821C10.7819 12.789 10.6464 12.8081 10.5321 12.8743C10.4178 12.9405 10.3338 13.0485 10.2977 13.1755L10.0223 14.2038L7.60523 10.0183L7.96093 10.154C8.17976 10.2381 8.42079 10.2446 8.64382 10.1724C8.86685 10.1003 9.0584 9.95383 9.18653 9.75754L9.62733 9.09114L11.94 13.0974L10.91 12.821Z" fill="white"/>
</svg>
