<svg width="200" height="37" viewBox="0 0 200 37" fill="none" xmlns="http://www.w3.org/2000/svg">
<g id="Logogroup">
<path id="Vector" d="M8.44914 0.555786H0V35.2788H8.44914V0.555786Z" fill="#272E71"/>
<path id="Vector_2" d="M22.8275 35.2788H14.4155V0.555786H22.8275L35.5383 20.0481V0.555786H43.9504V35.2788H35.5383L22.8275 15.453V35.2788Z" fill="#272E71"/>
<path id="Vector_3" d="M58.2915 35.2788H49.8423V0.555786H58.2915L70.9652 20.0481V0.555786H79.4143V35.2788H70.9652L58.2915 15.453V35.2788Z" fill="#272E71"/>
<path id="Vector_4" d="M105.466 0H100.537V13.7484H105.466V0Z" fill="#E4B302"/>
<path id="Vector_5" d="M146.711 23.2352V26.1628H137.372V8.89392H140.893V23.2352H146.711Z" fill="#272E71"/>
<g id="Group">
<g id="Group_2">
<path id="Vector_6" d="M150.713 17.5657C150.713 20.7527 153.011 23.3097 156.05 23.3097C159.014 23.3097 161.386 20.8639 161.386 17.6769C161.386 14.3047 159.162 11.8589 156.05 11.8589C153.011 11.8589 150.713 14.3047 150.713 17.5657ZM162.757 11.4512C164.239 13.0818 164.98 15.1199 164.98 17.6769C164.98 22.6056 161.052 26.6078 156.124 26.6078C151.047 26.6078 147.119 22.6797 147.119 17.6769C147.119 12.5259 151.047 8.5978 156.198 8.5978C158.718 8.56074 161.015 9.56129 162.757 11.4512Z" fill="#272E71"/>
</g>
</g>
<path id="Vector_7" d="M171.355 16.009H177.395V18.9736H171.355V26.1628H167.723V8.89392H177.395V11.7844H171.355V16.009Z" fill="#272E71"/>
<path id="Vector_8" d="M188.03 26.1628H184.51V11.7844H180.359V8.89392H192.144V11.7844H188.03V26.1628Z" fill="#272E71"/>
<g id="Group_3">
<g id="Group_4">
<path id="Vector_9" d="M108.32 0.480225V9.337C111.099 11.1528 112.915 14.4139 112.915 18.342C112.915 23.9748 108.505 28.5699 103.021 28.5699C97.4622 28.5699 93.0153 23.9748 93.0153 18.1567C93.0153 14.3027 94.8311 11.1158 97.6104 9.29994V0.55434C94.8311 1.36961 92.2741 2.7778 90.236 4.63068C86.382 8.29938 84.3438 13.0798 84.3438 18.1567C84.3438 28.3105 92.6818 36.3149 103.243 36.3149C113.471 36.3149 121.735 28.1252 121.735 18.0455C121.55 9.41111 116.176 2.51839 108.32 0.480225Z" fill="#E4B302"/>
</g>
<g id="Group_5">
<path id="Vector_10" d="M196.406 31.7579H126.07C129.109 28.7933 130.999 23.3088 130.999 17.9354C130.999 12.5621 128.887 6.89228 126.07 4.11295H196.406V31.7579ZM200 35.2784V0.55542H117.325C122.735 3.59415 125.922 8.89339 126.811 15.045C126.96 15.9343 127.071 16.9349 127.071 17.8984C127.071 18.8989 126.997 19.8624 126.811 20.7518C125.922 26.9034 122.735 32.2026 117.325 35.2414H200V35.2784Z" fill="#272E71"/>
</g>
</g>
</g>
</svg>
